<mxfile host="app.diagrams.net" agent="Mozilla/5.0 (Macintosh; Intel Mac OS X 10.15; rv:138.0) Gecko/20100101 Firefox/138.0" version="26.2.14">
  <diagram name="Страница — 1" id="ICFpaHcOcoHogkfdbQnj">
    <mxGraphModel dx="419" dy="902" grid="1" gridSize="10" guides="1" tooltips="1" connect="1" arrows="1" fold="1" page="1" pageScale="1" pageWidth="827" pageHeight="1169" math="0" shadow="0">
      <root>
        <mxCell id="0" />
        <mxCell id="1" parent="0" />
        <mxCell id="AFnphyHwQlmlIxG2m7yG-260" value="S1" style="ellipse;whiteSpace=wrap;html=1;aspect=fixed;rounded=0;labelBackgroundColor=none;" parent="1" vertex="1">
          <mxGeometry x="120" y="80" width="40" height="40" as="geometry" />
        </mxCell>
        <mxCell id="SLfzTxDuK_mz3WN6_6ux-1" style="edgeStyle=orthogonalEdgeStyle;rounded=0;orthogonalLoop=1;jettySize=auto;html=1;entryX=0;entryY=0.5;entryDx=0;entryDy=0;fontSize=12;startSize=8;endSize=8;labelBackgroundColor=none;fontColor=default;" edge="1" parent="1" source="AFnphyHwQlmlIxG2m7yG-1" target="AFnphyHwQlmlIxG2m7yG-260">
          <mxGeometry relative="1" as="geometry">
            <Array as="points">
              <mxPoint x="56" y="100" />
            </Array>
          </mxGeometry>
        </mxCell>
        <mxCell id="SLfzTxDuK_mz3WN6_6ux-17" value="=" style="edgeLabel;html=1;align=center;verticalAlign=middle;resizable=0;points=[];fontSize=12;fontFamily=Helvetica;fontColor=default;labelBackgroundColor=default;" vertex="1" connectable="0" parent="SLfzTxDuK_mz3WN6_6ux-1">
          <mxGeometry x="0.4494" y="-2" relative="1" as="geometry">
            <mxPoint y="-17" as="offset" />
          </mxGeometry>
        </mxCell>
        <mxCell id="SLfzTxDuK_mz3WN6_6ux-12" style="edgeStyle=orthogonalEdgeStyle;rounded=0;orthogonalLoop=1;jettySize=auto;html=1;entryX=0;entryY=0.5;entryDx=0;entryDy=0;fontSize=12;startSize=8;endSize=8;labelBackgroundColor=none;fontColor=default;" edge="1" parent="1" source="AFnphyHwQlmlIxG2m7yG-1" target="SLfzTxDuK_mz3WN6_6ux-2">
          <mxGeometry relative="1" as="geometry">
            <Array as="points">
              <mxPoint x="56" y="180" />
            </Array>
          </mxGeometry>
        </mxCell>
        <mxCell id="SLfzTxDuK_mz3WN6_6ux-18" value="+" style="edgeLabel;html=1;align=center;verticalAlign=middle;resizable=0;points=[];fontSize=12;fontFamily=Helvetica;fontColor=default;labelBackgroundColor=default;" vertex="1" connectable="0" parent="SLfzTxDuK_mz3WN6_6ux-12">
          <mxGeometry x="0.7306" y="-2" relative="1" as="geometry">
            <mxPoint y="-17" as="offset" />
          </mxGeometry>
        </mxCell>
        <mxCell id="SLfzTxDuK_mz3WN6_6ux-13" style="edgeStyle=orthogonalEdgeStyle;orthogonalLoop=1;jettySize=auto;html=1;entryX=0;entryY=0.5;entryDx=0;entryDy=0;fontSize=12;startSize=8;endSize=8;rounded=0;curved=0;" edge="1" parent="1" source="AFnphyHwQlmlIxG2m7yG-1" target="SLfzTxDuK_mz3WN6_6ux-4">
          <mxGeometry relative="1" as="geometry">
            <Array as="points">
              <mxPoint x="56" y="340" />
            </Array>
          </mxGeometry>
        </mxCell>
        <mxCell id="SLfzTxDuK_mz3WN6_6ux-19" value="-" style="edgeLabel;html=1;align=center;verticalAlign=middle;resizable=0;points=[];fontSize=12;fontFamily=Helvetica;fontColor=default;labelBackgroundColor=default;" vertex="1" connectable="0" parent="SLfzTxDuK_mz3WN6_6ux-13">
          <mxGeometry x="0.8013" y="-1" relative="1" as="geometry">
            <mxPoint y="-16" as="offset" />
          </mxGeometry>
        </mxCell>
        <mxCell id="SLfzTxDuK_mz3WN6_6ux-14" style="edgeStyle=orthogonalEdgeStyle;shape=connector;curved=0;rounded=0;orthogonalLoop=1;jettySize=auto;html=1;entryX=0;entryY=0.5;entryDx=0;entryDy=0;strokeColor=default;align=center;verticalAlign=middle;fontFamily=Helvetica;fontSize=12;fontColor=default;labelBackgroundColor=default;startSize=8;endArrow=classic;endSize=8;" edge="1" parent="1" source="AFnphyHwQlmlIxG2m7yG-1" target="SLfzTxDuK_mz3WN6_6ux-6">
          <mxGeometry relative="1" as="geometry">
            <Array as="points">
              <mxPoint x="56" y="580" />
            </Array>
          </mxGeometry>
        </mxCell>
        <mxCell id="SLfzTxDuK_mz3WN6_6ux-20" value="*" style="edgeLabel;html=1;align=center;verticalAlign=middle;resizable=0;points=[];fontSize=12;fontFamily=Helvetica;fontColor=default;labelBackgroundColor=default;" vertex="1" connectable="0" parent="SLfzTxDuK_mz3WN6_6ux-14">
          <mxGeometry x="0.8816" relative="1" as="geometry">
            <mxPoint x="-8" y="-15" as="offset" />
          </mxGeometry>
        </mxCell>
        <mxCell id="SLfzTxDuK_mz3WN6_6ux-15" style="edgeStyle=orthogonalEdgeStyle;shape=connector;curved=0;rounded=0;orthogonalLoop=1;jettySize=auto;html=1;entryX=0;entryY=0.5;entryDx=0;entryDy=0;strokeColor=default;align=center;verticalAlign=middle;fontFamily=Helvetica;fontSize=12;fontColor=default;labelBackgroundColor=default;startSize=8;endArrow=classic;endSize=8;" edge="1" parent="1" source="AFnphyHwQlmlIxG2m7yG-1" target="SLfzTxDuK_mz3WN6_6ux-8">
          <mxGeometry relative="1" as="geometry">
            <Array as="points">
              <mxPoint x="56" y="660" />
            </Array>
          </mxGeometry>
        </mxCell>
        <mxCell id="SLfzTxDuK_mz3WN6_6ux-21" value="/" style="edgeLabel;html=1;align=center;verticalAlign=middle;resizable=0;points=[];fontSize=12;fontFamily=Helvetica;fontColor=default;labelBackgroundColor=default;" vertex="1" connectable="0" parent="SLfzTxDuK_mz3WN6_6ux-15">
          <mxGeometry x="0.8862" y="-1" relative="1" as="geometry">
            <mxPoint y="-21" as="offset" />
          </mxGeometry>
        </mxCell>
        <mxCell id="SLfzTxDuK_mz3WN6_6ux-16" style="edgeStyle=orthogonalEdgeStyle;shape=connector;curved=0;rounded=0;orthogonalLoop=1;jettySize=auto;html=1;entryX=0;entryY=0.5;entryDx=0;entryDy=0;strokeColor=default;align=center;verticalAlign=middle;fontFamily=Helvetica;fontSize=12;fontColor=default;labelBackgroundColor=default;startSize=8;endArrow=classic;endSize=8;" edge="1" parent="1" source="AFnphyHwQlmlIxG2m7yG-1" target="SLfzTxDuK_mz3WN6_6ux-10">
          <mxGeometry relative="1" as="geometry">
            <Array as="points">
              <mxPoint x="56" y="740" />
            </Array>
          </mxGeometry>
        </mxCell>
        <mxCell id="SLfzTxDuK_mz3WN6_6ux-22" value="%" style="edgeLabel;html=1;align=center;verticalAlign=middle;resizable=0;points=[];fontSize=12;fontFamily=Helvetica;fontColor=default;labelBackgroundColor=default;" vertex="1" connectable="0" parent="SLfzTxDuK_mz3WN6_6ux-16">
          <mxGeometry x="0.9036" y="-3" relative="1" as="geometry">
            <mxPoint y="-18" as="offset" />
          </mxGeometry>
        </mxCell>
        <mxCell id="SLfzTxDuK_mz3WN6_6ux-47" style="edgeStyle=orthogonalEdgeStyle;shape=connector;curved=0;rounded=0;orthogonalLoop=1;jettySize=auto;html=1;entryX=0;entryY=0.5;entryDx=0;entryDy=0;strokeColor=default;align=center;verticalAlign=middle;fontFamily=Helvetica;fontSize=12;fontColor=default;labelBackgroundColor=default;startSize=8;endArrow=classic;endSize=8;" edge="1" parent="1" source="AFnphyHwQlmlIxG2m7yG-1" target="SLfzTxDuK_mz3WN6_6ux-43">
          <mxGeometry relative="1" as="geometry">
            <Array as="points">
              <mxPoint x="56" y="900" />
            </Array>
          </mxGeometry>
        </mxCell>
        <mxCell id="SLfzTxDuK_mz3WN6_6ux-49" value="&amp;lt;" style="edgeLabel;html=1;align=center;verticalAlign=middle;resizable=0;points=[];fontSize=12;fontFamily=Helvetica;fontColor=default;labelBackgroundColor=default;" vertex="1" connectable="0" parent="SLfzTxDuK_mz3WN6_6ux-47">
          <mxGeometry x="0.9153" y="-1" relative="1" as="geometry">
            <mxPoint y="-16" as="offset" />
          </mxGeometry>
        </mxCell>
        <mxCell id="SLfzTxDuK_mz3WN6_6ux-48" style="edgeStyle=orthogonalEdgeStyle;shape=connector;curved=0;rounded=0;orthogonalLoop=1;jettySize=auto;html=1;entryX=0;entryY=0.5;entryDx=0;entryDy=0;strokeColor=default;align=center;verticalAlign=middle;fontFamily=Helvetica;fontSize=12;fontColor=default;labelBackgroundColor=default;startSize=8;endArrow=classic;endSize=8;" edge="1" parent="1" source="AFnphyHwQlmlIxG2m7yG-1" target="SLfzTxDuK_mz3WN6_6ux-45">
          <mxGeometry relative="1" as="geometry">
            <Array as="points">
              <mxPoint x="56" y="1060" />
            </Array>
          </mxGeometry>
        </mxCell>
        <mxCell id="SLfzTxDuK_mz3WN6_6ux-50" value="&amp;gt;" style="edgeLabel;html=1;align=center;verticalAlign=middle;resizable=0;points=[];fontSize=12;fontFamily=Helvetica;fontColor=default;labelBackgroundColor=default;" vertex="1" connectable="0" parent="SLfzTxDuK_mz3WN6_6ux-48">
          <mxGeometry x="0.9222" y="1" relative="1" as="geometry">
            <mxPoint y="-14" as="offset" />
          </mxGeometry>
        </mxCell>
        <mxCell id="SLfzTxDuK_mz3WN6_6ux-64" style="edgeStyle=orthogonalEdgeStyle;shape=connector;curved=0;rounded=0;orthogonalLoop=1;jettySize=auto;html=1;entryX=0;entryY=0.5;entryDx=0;entryDy=0;strokeColor=default;align=center;verticalAlign=middle;fontFamily=Helvetica;fontSize=12;fontColor=default;labelBackgroundColor=default;startSize=8;endArrow=classic;endSize=8;" edge="1" parent="1" source="AFnphyHwQlmlIxG2m7yG-1" target="SLfzTxDuK_mz3WN6_6ux-60">
          <mxGeometry relative="1" as="geometry">
            <Array as="points">
              <mxPoint x="56" y="820" />
            </Array>
          </mxGeometry>
        </mxCell>
        <mxCell id="SLfzTxDuK_mz3WN6_6ux-65" value="!" style="edgeLabel;html=1;align=center;verticalAlign=middle;resizable=0;points=[];fontSize=12;fontFamily=Helvetica;fontColor=default;labelBackgroundColor=default;" vertex="1" connectable="0" parent="SLfzTxDuK_mz3WN6_6ux-64">
          <mxGeometry x="0.8943" relative="1" as="geometry">
            <mxPoint y="-15" as="offset" />
          </mxGeometry>
        </mxCell>
        <mxCell id="SLfzTxDuK_mz3WN6_6ux-78" style="edgeStyle=orthogonalEdgeStyle;shape=connector;curved=0;rounded=0;orthogonalLoop=1;jettySize=auto;html=1;entryX=0;entryY=0.5;entryDx=0;entryDy=0;strokeColor=default;align=center;verticalAlign=middle;fontFamily=Helvetica;fontSize=12;fontColor=default;labelBackgroundColor=default;startSize=8;endArrow=classic;endSize=8;" edge="1" parent="1" source="AFnphyHwQlmlIxG2m7yG-1" target="SLfzTxDuK_mz3WN6_6ux-66">
          <mxGeometry relative="1" as="geometry">
            <Array as="points">
              <mxPoint x="56" y="1220" />
            </Array>
          </mxGeometry>
        </mxCell>
        <mxCell id="SLfzTxDuK_mz3WN6_6ux-79" value="&amp;amp;" style="edgeLabel;html=1;align=center;verticalAlign=middle;resizable=0;points=[];fontSize=12;fontFamily=Helvetica;fontColor=default;labelBackgroundColor=default;" vertex="1" connectable="0" parent="SLfzTxDuK_mz3WN6_6ux-78">
          <mxGeometry x="0.9261" y="-1" relative="1" as="geometry">
            <mxPoint y="-16" as="offset" />
          </mxGeometry>
        </mxCell>
        <mxCell id="SLfzTxDuK_mz3WN6_6ux-80" style="edgeStyle=orthogonalEdgeStyle;shape=connector;curved=0;rounded=0;orthogonalLoop=1;jettySize=auto;html=1;entryX=0;entryY=0.5;entryDx=0;entryDy=0;strokeColor=default;align=center;verticalAlign=middle;fontFamily=Helvetica;fontSize=12;fontColor=default;labelBackgroundColor=default;startSize=8;endArrow=classic;endSize=8;" edge="1" parent="1" source="AFnphyHwQlmlIxG2m7yG-1" target="SLfzTxDuK_mz3WN6_6ux-68">
          <mxGeometry relative="1" as="geometry">
            <Array as="points">
              <mxPoint x="56" y="1380" />
            </Array>
          </mxGeometry>
        </mxCell>
        <mxCell id="SLfzTxDuK_mz3WN6_6ux-81" value="|" style="edgeLabel;html=1;align=center;verticalAlign=middle;resizable=0;points=[];fontSize=12;fontFamily=Helvetica;fontColor=default;labelBackgroundColor=default;" vertex="1" connectable="0" parent="SLfzTxDuK_mz3WN6_6ux-80">
          <mxGeometry x="0.9309" relative="1" as="geometry">
            <mxPoint y="-15" as="offset" />
          </mxGeometry>
        </mxCell>
        <mxCell id="SLfzTxDuK_mz3WN6_6ux-84" style="edgeStyle=orthogonalEdgeStyle;shape=connector;curved=0;rounded=0;orthogonalLoop=1;jettySize=auto;html=1;entryX=0;entryY=0.5;entryDx=0;entryDy=0;strokeColor=default;align=center;verticalAlign=middle;fontFamily=Helvetica;fontSize=12;fontColor=default;labelBackgroundColor=default;startSize=8;endArrow=classic;endSize=8;" edge="1" parent="1" source="AFnphyHwQlmlIxG2m7yG-1" target="SLfzTxDuK_mz3WN6_6ux-82">
          <mxGeometry relative="1" as="geometry">
            <Array as="points">
              <mxPoint x="56" y="1540" />
            </Array>
          </mxGeometry>
        </mxCell>
        <mxCell id="SLfzTxDuK_mz3WN6_6ux-85" value="~" style="edgeLabel;html=1;align=center;verticalAlign=middle;resizable=0;points=[];fontSize=12;fontFamily=Helvetica;fontColor=default;labelBackgroundColor=default;" vertex="1" connectable="0" parent="SLfzTxDuK_mz3WN6_6ux-84">
          <mxGeometry x="0.9512" y="-1" relative="1" as="geometry">
            <mxPoint x="-5" y="-16" as="offset" />
          </mxGeometry>
        </mxCell>
        <mxCell id="SLfzTxDuK_mz3WN6_6ux-116" value="" style="edgeStyle=orthogonalEdgeStyle;shape=connector;curved=0;rounded=0;orthogonalLoop=1;jettySize=auto;html=1;entryX=0;entryY=0.5;entryDx=0;entryDy=0;strokeColor=default;align=center;verticalAlign=middle;fontFamily=Helvetica;fontSize=12;fontColor=default;labelBackgroundColor=default;startSize=8;endArrow=classic;endSize=8;" edge="1" parent="1" source="AFnphyHwQlmlIxG2m7yG-1" target="SLfzTxDuK_mz3WN6_6ux-114">
          <mxGeometry relative="1" as="geometry">
            <Array as="points">
              <mxPoint x="56" y="1620" />
            </Array>
          </mxGeometry>
        </mxCell>
        <mxCell id="SLfzTxDuK_mz3WN6_6ux-117" value="^" style="edgeLabel;html=1;align=center;verticalAlign=middle;resizable=0;points=[];fontSize=12;fontFamily=Helvetica;fontColor=default;labelBackgroundColor=default;" vertex="1" connectable="0" parent="SLfzTxDuK_mz3WN6_6ux-116">
          <mxGeometry x="0.9548" y="-1" relative="1" as="geometry">
            <mxPoint y="-16" as="offset" />
          </mxGeometry>
        </mxCell>
        <mxCell id="SLfzTxDuK_mz3WN6_6ux-160" style="edgeStyle=orthogonalEdgeStyle;shape=connector;curved=0;rounded=0;orthogonalLoop=1;jettySize=auto;html=1;entryX=0;entryY=0.5;entryDx=0;entryDy=0;strokeColor=default;align=center;verticalAlign=middle;fontFamily=Helvetica;fontSize=12;fontColor=default;labelBackgroundColor=default;startSize=8;endArrow=classic;endSize=8;" edge="1" parent="1" source="AFnphyHwQlmlIxG2m7yG-1" target="SLfzTxDuK_mz3WN6_6ux-147">
          <mxGeometry relative="1" as="geometry">
            <Array as="points">
              <mxPoint x="56" y="1700" />
            </Array>
          </mxGeometry>
        </mxCell>
        <mxCell id="SLfzTxDuK_mz3WN6_6ux-163" value="." style="edgeLabel;html=1;align=center;verticalAlign=middle;resizable=0;points=[];fontSize=12;fontFamily=Helvetica;fontColor=default;labelBackgroundColor=default;" vertex="1" connectable="0" parent="SLfzTxDuK_mz3WN6_6ux-160">
          <mxGeometry x="0.9645" relative="1" as="geometry">
            <mxPoint y="-15" as="offset" />
          </mxGeometry>
        </mxCell>
        <mxCell id="SLfzTxDuK_mz3WN6_6ux-161" style="edgeStyle=orthogonalEdgeStyle;shape=connector;curved=0;rounded=0;orthogonalLoop=1;jettySize=auto;html=1;entryX=0;entryY=0.5;entryDx=0;entryDy=0;strokeColor=default;align=center;verticalAlign=middle;fontFamily=Helvetica;fontSize=12;fontColor=default;labelBackgroundColor=default;startSize=8;endArrow=classic;endSize=8;" edge="1" parent="1" source="AFnphyHwQlmlIxG2m7yG-1" target="SLfzTxDuK_mz3WN6_6ux-149">
          <mxGeometry relative="1" as="geometry">
            <Array as="points">
              <mxPoint x="56" y="1780" />
            </Array>
          </mxGeometry>
        </mxCell>
        <mxCell id="SLfzTxDuK_mz3WN6_6ux-164" value="," style="edgeLabel;html=1;align=center;verticalAlign=middle;resizable=0;points=[];fontSize=12;fontFamily=Helvetica;fontColor=default;labelBackgroundColor=default;" vertex="1" connectable="0" parent="SLfzTxDuK_mz3WN6_6ux-161">
          <mxGeometry x="0.9638" y="-1" relative="1" as="geometry">
            <mxPoint y="-16" as="offset" />
          </mxGeometry>
        </mxCell>
        <mxCell id="SLfzTxDuK_mz3WN6_6ux-162" style="edgeStyle=orthogonalEdgeStyle;shape=connector;curved=0;rounded=0;orthogonalLoop=1;jettySize=auto;html=1;entryX=0;entryY=0.5;entryDx=0;entryDy=0;strokeColor=default;align=center;verticalAlign=middle;fontFamily=Helvetica;fontSize=12;fontColor=default;labelBackgroundColor=default;startSize=8;endArrow=classic;endSize=8;" edge="1" parent="1" source="AFnphyHwQlmlIxG2m7yG-1" target="SLfzTxDuK_mz3WN6_6ux-152">
          <mxGeometry relative="1" as="geometry">
            <Array as="points">
              <mxPoint x="56" y="1860" />
            </Array>
          </mxGeometry>
        </mxCell>
        <mxCell id="SLfzTxDuK_mz3WN6_6ux-166" value=":" style="edgeLabel;html=1;align=center;verticalAlign=middle;resizable=0;points=[];fontSize=12;fontFamily=Helvetica;fontColor=default;labelBackgroundColor=default;" vertex="1" connectable="0" parent="SLfzTxDuK_mz3WN6_6ux-162">
          <mxGeometry x="0.9609" y="1" relative="1" as="geometry">
            <mxPoint y="-14" as="offset" />
          </mxGeometry>
        </mxCell>
        <mxCell id="AFnphyHwQlmlIxG2m7yG-1" value="S0" style="ellipse;whiteSpace=wrap;html=1;aspect=fixed;rounded=0;labelBackgroundColor=none;" parent="1" vertex="1">
          <mxGeometry x="36" width="40" height="40" as="geometry" />
        </mxCell>
        <mxCell id="SLfzTxDuK_mz3WN6_6ux-31" style="edgeStyle=orthogonalEdgeStyle;shape=connector;curved=0;rounded=0;orthogonalLoop=1;jettySize=auto;html=1;entryX=0;entryY=0.5;entryDx=0;entryDy=0;strokeColor=default;align=center;verticalAlign=middle;fontFamily=Helvetica;fontSize=12;fontColor=default;labelBackgroundColor=default;startSize=8;endArrow=classic;endSize=8;" edge="1" parent="1" source="AFnphyHwQlmlIxG2m7yG-55" target="SLfzTxDuK_mz3WN6_6ux-29">
          <mxGeometry relative="1" as="geometry" />
        </mxCell>
        <mxCell id="SLfzTxDuK_mz3WN6_6ux-34" value="=" style="edgeLabel;html=1;align=center;verticalAlign=middle;resizable=0;points=[];fontSize=12;fontFamily=Helvetica;fontColor=default;labelBackgroundColor=default;" vertex="1" connectable="0" parent="SLfzTxDuK_mz3WN6_6ux-31">
          <mxGeometry x="-0.0301" y="-1" relative="1" as="geometry">
            <mxPoint y="-16" as="offset" />
          </mxGeometry>
        </mxCell>
        <mxCell id="AFnphyHwQlmlIxG2m7yG-55" value="S" style="ellipse;whiteSpace=wrap;html=1;aspect=fixed;rounded=0;labelBackgroundColor=none;" parent="1" vertex="1">
          <mxGeometry x="125" y="85" width="30" height="30" as="geometry" />
        </mxCell>
        <mxCell id="SLfzTxDuK_mz3WN6_6ux-25" style="edgeStyle=orthogonalEdgeStyle;shape=connector;curved=0;rounded=0;orthogonalLoop=1;jettySize=auto;html=1;entryX=0;entryY=0.5;entryDx=0;entryDy=0;strokeColor=default;align=center;verticalAlign=middle;fontFamily=Helvetica;fontSize=12;fontColor=default;labelBackgroundColor=default;startSize=8;endArrow=classic;endSize=8;" edge="1" parent="1" source="SLfzTxDuK_mz3WN6_6ux-2" target="SLfzTxDuK_mz3WN6_6ux-23">
          <mxGeometry relative="1" as="geometry" />
        </mxCell>
        <mxCell id="SLfzTxDuK_mz3WN6_6ux-26" value="+" style="edgeLabel;html=1;align=center;verticalAlign=middle;resizable=0;points=[];fontSize=12;fontFamily=Helvetica;fontColor=default;labelBackgroundColor=default;" vertex="1" connectable="0" parent="SLfzTxDuK_mz3WN6_6ux-25">
          <mxGeometry x="-0.0019" relative="1" as="geometry">
            <mxPoint y="-15" as="offset" />
          </mxGeometry>
        </mxCell>
        <mxCell id="SLfzTxDuK_mz3WN6_6ux-2" value="S1" style="ellipse;whiteSpace=wrap;html=1;aspect=fixed;rounded=0;labelBackgroundColor=none;" vertex="1" parent="1">
          <mxGeometry x="120" y="160" width="40" height="40" as="geometry" />
        </mxCell>
        <mxCell id="SLfzTxDuK_mz3WN6_6ux-104" style="edgeStyle=orthogonalEdgeStyle;shape=connector;curved=0;rounded=0;orthogonalLoop=1;jettySize=auto;html=1;entryX=0;entryY=0.5;entryDx=0;entryDy=0;strokeColor=default;align=center;verticalAlign=middle;fontFamily=Helvetica;fontSize=12;fontColor=default;labelBackgroundColor=default;startSize=8;endArrow=classic;endSize=8;" edge="1" parent="1" source="SLfzTxDuK_mz3WN6_6ux-3" target="SLfzTxDuK_mz3WN6_6ux-94">
          <mxGeometry relative="1" as="geometry">
            <Array as="points">
              <mxPoint x="180" y="180" />
              <mxPoint x="180" y="260" />
            </Array>
          </mxGeometry>
        </mxCell>
        <mxCell id="SLfzTxDuK_mz3WN6_6ux-109" value="=" style="edgeLabel;html=1;align=center;verticalAlign=middle;resizable=0;points=[];fontSize=12;fontFamily=Helvetica;fontColor=default;labelBackgroundColor=default;" vertex="1" connectable="0" parent="SLfzTxDuK_mz3WN6_6ux-104">
          <mxGeometry x="0.6053" relative="1" as="geometry">
            <mxPoint y="-15" as="offset" />
          </mxGeometry>
        </mxCell>
        <mxCell id="SLfzTxDuK_mz3WN6_6ux-3" value="S" style="ellipse;whiteSpace=wrap;html=1;aspect=fixed;rounded=0;labelBackgroundColor=none;" vertex="1" parent="1">
          <mxGeometry x="125" y="165" width="30" height="30" as="geometry" />
        </mxCell>
        <mxCell id="SLfzTxDuK_mz3WN6_6ux-105" style="edgeStyle=orthogonalEdgeStyle;shape=connector;curved=0;rounded=0;orthogonalLoop=1;jettySize=auto;html=1;entryX=0;entryY=0.5;entryDx=0;entryDy=0;strokeColor=default;align=center;verticalAlign=middle;fontFamily=Helvetica;fontSize=12;fontColor=default;labelBackgroundColor=default;startSize=8;endArrow=classic;endSize=8;" edge="1" parent="1" source="SLfzTxDuK_mz3WN6_6ux-4" target="SLfzTxDuK_mz3WN6_6ux-96">
          <mxGeometry relative="1" as="geometry">
            <Array as="points">
              <mxPoint x="180" y="340" />
              <mxPoint x="180" y="420" />
            </Array>
          </mxGeometry>
        </mxCell>
        <mxCell id="SLfzTxDuK_mz3WN6_6ux-110" value="=" style="edgeLabel;html=1;align=center;verticalAlign=middle;resizable=0;points=[];fontSize=12;fontFamily=Helvetica;fontColor=default;labelBackgroundColor=default;" vertex="1" connectable="0" parent="SLfzTxDuK_mz3WN6_6ux-105">
          <mxGeometry x="0.5712" y="-3" relative="1" as="geometry">
            <mxPoint y="-18" as="offset" />
          </mxGeometry>
        </mxCell>
        <mxCell id="SLfzTxDuK_mz3WN6_6ux-4" value="S1" style="ellipse;whiteSpace=wrap;html=1;aspect=fixed;rounded=0;labelBackgroundColor=none;" vertex="1" parent="1">
          <mxGeometry x="120" y="320" width="40" height="40" as="geometry" />
        </mxCell>
        <mxCell id="SLfzTxDuK_mz3WN6_6ux-32" style="edgeStyle=orthogonalEdgeStyle;shape=connector;curved=0;rounded=0;orthogonalLoop=1;jettySize=auto;html=1;entryX=0;entryY=0.5;entryDx=0;entryDy=0;strokeColor=default;align=center;verticalAlign=middle;fontFamily=Helvetica;fontSize=12;fontColor=default;labelBackgroundColor=default;startSize=8;endArrow=classic;endSize=8;" edge="1" parent="1" source="SLfzTxDuK_mz3WN6_6ux-5" target="SLfzTxDuK_mz3WN6_6ux-27">
          <mxGeometry relative="1" as="geometry" />
        </mxCell>
        <mxCell id="SLfzTxDuK_mz3WN6_6ux-33" value="-" style="edgeLabel;html=1;align=center;verticalAlign=middle;resizable=0;points=[];fontSize=12;fontFamily=Helvetica;fontColor=default;labelBackgroundColor=default;" vertex="1" connectable="0" parent="SLfzTxDuK_mz3WN6_6ux-32">
          <mxGeometry x="0.0919" y="2" relative="1" as="geometry">
            <mxPoint y="-13" as="offset" />
          </mxGeometry>
        </mxCell>
        <mxCell id="SLfzTxDuK_mz3WN6_6ux-141" style="edgeStyle=orthogonalEdgeStyle;shape=connector;curved=0;rounded=0;orthogonalLoop=1;jettySize=auto;html=1;entryX=0;entryY=0.5;entryDx=0;entryDy=0;strokeColor=default;align=center;verticalAlign=middle;fontFamily=Helvetica;fontSize=12;fontColor=default;labelBackgroundColor=default;startSize=8;endArrow=classic;endSize=8;" edge="1" parent="1" source="SLfzTxDuK_mz3WN6_6ux-5" target="SLfzTxDuK_mz3WN6_6ux-139">
          <mxGeometry relative="1" as="geometry">
            <Array as="points">
              <mxPoint x="180" y="340" />
              <mxPoint x="180" y="500" />
            </Array>
          </mxGeometry>
        </mxCell>
        <mxCell id="SLfzTxDuK_mz3WN6_6ux-142" value="&amp;gt;" style="edgeLabel;html=1;align=center;verticalAlign=middle;resizable=0;points=[];fontSize=12;fontFamily=Helvetica;fontColor=default;labelBackgroundColor=default;" vertex="1" connectable="0" parent="SLfzTxDuK_mz3WN6_6ux-141">
          <mxGeometry x="0.8316" y="-1" relative="1" as="geometry">
            <mxPoint x="-9" y="-16" as="offset" />
          </mxGeometry>
        </mxCell>
        <mxCell id="SLfzTxDuK_mz3WN6_6ux-5" value="S" style="ellipse;whiteSpace=wrap;html=1;aspect=fixed;rounded=0;labelBackgroundColor=none;" vertex="1" parent="1">
          <mxGeometry x="125" y="325" width="30" height="30" as="geometry" />
        </mxCell>
        <mxCell id="SLfzTxDuK_mz3WN6_6ux-106" style="edgeStyle=orthogonalEdgeStyle;shape=connector;curved=0;rounded=0;orthogonalLoop=1;jettySize=auto;html=1;entryX=0;entryY=0.5;entryDx=0;entryDy=0;strokeColor=default;align=center;verticalAlign=middle;fontFamily=Helvetica;fontSize=12;fontColor=default;labelBackgroundColor=default;startSize=8;endArrow=classic;endSize=8;" edge="1" parent="1" source="SLfzTxDuK_mz3WN6_6ux-6" target="SLfzTxDuK_mz3WN6_6ux-98">
          <mxGeometry relative="1" as="geometry" />
        </mxCell>
        <mxCell id="SLfzTxDuK_mz3WN6_6ux-111" value="=" style="edgeLabel;html=1;align=center;verticalAlign=middle;resizable=0;points=[];fontSize=12;fontFamily=Helvetica;fontColor=default;labelBackgroundColor=default;" vertex="1" connectable="0" parent="SLfzTxDuK_mz3WN6_6ux-106">
          <mxGeometry x="0.012" y="-2" relative="1" as="geometry">
            <mxPoint x="-1" y="-17" as="offset" />
          </mxGeometry>
        </mxCell>
        <mxCell id="SLfzTxDuK_mz3WN6_6ux-6" value="S1" style="ellipse;whiteSpace=wrap;html=1;aspect=fixed;rounded=0;labelBackgroundColor=none;" vertex="1" parent="1">
          <mxGeometry x="120" y="560" width="40" height="40" as="geometry" />
        </mxCell>
        <mxCell id="SLfzTxDuK_mz3WN6_6ux-7" value="S" style="ellipse;whiteSpace=wrap;html=1;aspect=fixed;rounded=0;labelBackgroundColor=none;" vertex="1" parent="1">
          <mxGeometry x="125" y="565" width="30" height="30" as="geometry" />
        </mxCell>
        <mxCell id="SLfzTxDuK_mz3WN6_6ux-8" value="S1" style="ellipse;whiteSpace=wrap;html=1;aspect=fixed;rounded=0;labelBackgroundColor=none;" vertex="1" parent="1">
          <mxGeometry x="120" y="640" width="40" height="40" as="geometry" />
        </mxCell>
        <mxCell id="SLfzTxDuK_mz3WN6_6ux-107" style="edgeStyle=orthogonalEdgeStyle;shape=connector;curved=0;rounded=0;orthogonalLoop=1;jettySize=auto;html=1;entryX=0;entryY=0.5;entryDx=0;entryDy=0;strokeColor=default;align=center;verticalAlign=middle;fontFamily=Helvetica;fontSize=12;fontColor=default;labelBackgroundColor=default;startSize=8;endArrow=classic;endSize=8;" edge="1" parent="1" source="SLfzTxDuK_mz3WN6_6ux-9" target="SLfzTxDuK_mz3WN6_6ux-100">
          <mxGeometry relative="1" as="geometry" />
        </mxCell>
        <mxCell id="SLfzTxDuK_mz3WN6_6ux-112" value="=" style="edgeLabel;html=1;align=center;verticalAlign=middle;resizable=0;points=[];fontSize=12;fontFamily=Helvetica;fontColor=default;labelBackgroundColor=default;" vertex="1" connectable="0" parent="SLfzTxDuK_mz3WN6_6ux-107">
          <mxGeometry x="0.0292" y="-2" relative="1" as="geometry">
            <mxPoint x="2" y="-17" as="offset" />
          </mxGeometry>
        </mxCell>
        <mxCell id="SLfzTxDuK_mz3WN6_6ux-9" value="S" style="ellipse;whiteSpace=wrap;html=1;aspect=fixed;rounded=0;labelBackgroundColor=none;" vertex="1" parent="1">
          <mxGeometry x="125" y="645" width="30" height="30" as="geometry" />
        </mxCell>
        <mxCell id="SLfzTxDuK_mz3WN6_6ux-10" value="S1" style="ellipse;whiteSpace=wrap;html=1;aspect=fixed;rounded=0;labelBackgroundColor=none;" vertex="1" parent="1">
          <mxGeometry x="120" y="720" width="40" height="40" as="geometry" />
        </mxCell>
        <mxCell id="SLfzTxDuK_mz3WN6_6ux-108" style="edgeStyle=orthogonalEdgeStyle;shape=connector;curved=0;rounded=0;orthogonalLoop=1;jettySize=auto;html=1;entryX=0;entryY=0.5;entryDx=0;entryDy=0;strokeColor=default;align=center;verticalAlign=middle;fontFamily=Helvetica;fontSize=12;fontColor=default;labelBackgroundColor=default;startSize=8;endArrow=classic;endSize=8;" edge="1" parent="1" source="SLfzTxDuK_mz3WN6_6ux-11" target="SLfzTxDuK_mz3WN6_6ux-102">
          <mxGeometry relative="1" as="geometry" />
        </mxCell>
        <mxCell id="SLfzTxDuK_mz3WN6_6ux-113" value="=" style="edgeLabel;html=1;align=center;verticalAlign=middle;resizable=0;points=[];fontSize=12;fontFamily=Helvetica;fontColor=default;labelBackgroundColor=default;" vertex="1" connectable="0" parent="SLfzTxDuK_mz3WN6_6ux-108">
          <mxGeometry x="0.0701" relative="1" as="geometry">
            <mxPoint y="-15" as="offset" />
          </mxGeometry>
        </mxCell>
        <mxCell id="SLfzTxDuK_mz3WN6_6ux-11" value="S" style="ellipse;whiteSpace=wrap;html=1;aspect=fixed;rounded=0;labelBackgroundColor=none;" vertex="1" parent="1">
          <mxGeometry x="125" y="725" width="30" height="30" as="geometry" />
        </mxCell>
        <mxCell id="SLfzTxDuK_mz3WN6_6ux-23" value="S1" style="ellipse;whiteSpace=wrap;html=1;aspect=fixed;rounded=0;labelBackgroundColor=none;" vertex="1" parent="1">
          <mxGeometry x="240" y="160" width="40" height="40" as="geometry" />
        </mxCell>
        <mxCell id="SLfzTxDuK_mz3WN6_6ux-24" value="S" style="ellipse;whiteSpace=wrap;html=1;aspect=fixed;rounded=0;labelBackgroundColor=none;" vertex="1" parent="1">
          <mxGeometry x="245" y="165" width="30" height="30" as="geometry" />
        </mxCell>
        <mxCell id="SLfzTxDuK_mz3WN6_6ux-27" value="S1" style="ellipse;whiteSpace=wrap;html=1;aspect=fixed;rounded=0;labelBackgroundColor=none;" vertex="1" parent="1">
          <mxGeometry x="240" y="320" width="40" height="40" as="geometry" />
        </mxCell>
        <mxCell id="SLfzTxDuK_mz3WN6_6ux-28" value="S" style="ellipse;whiteSpace=wrap;html=1;aspect=fixed;rounded=0;labelBackgroundColor=none;" vertex="1" parent="1">
          <mxGeometry x="245" y="325" width="30" height="30" as="geometry" />
        </mxCell>
        <mxCell id="SLfzTxDuK_mz3WN6_6ux-29" value="S1" style="ellipse;whiteSpace=wrap;html=1;aspect=fixed;rounded=0;labelBackgroundColor=none;" vertex="1" parent="1">
          <mxGeometry x="240" y="80" width="40" height="40" as="geometry" />
        </mxCell>
        <mxCell id="SLfzTxDuK_mz3WN6_6ux-30" value="S" style="ellipse;whiteSpace=wrap;html=1;aspect=fixed;rounded=0;labelBackgroundColor=none;" vertex="1" parent="1">
          <mxGeometry x="245" y="85" width="30" height="30" as="geometry" />
        </mxCell>
        <mxCell id="SLfzTxDuK_mz3WN6_6ux-39" value="S1" style="ellipse;whiteSpace=wrap;html=1;aspect=fixed;rounded=0;labelBackgroundColor=none;" vertex="1" parent="1">
          <mxGeometry x="240" y="800" width="40" height="40" as="geometry" />
        </mxCell>
        <mxCell id="SLfzTxDuK_mz3WN6_6ux-40" value="S" style="ellipse;whiteSpace=wrap;html=1;aspect=fixed;rounded=0;labelBackgroundColor=none;" vertex="1" parent="1">
          <mxGeometry x="245" y="805" width="30" height="30" as="geometry" />
        </mxCell>
        <mxCell id="SLfzTxDuK_mz3WN6_6ux-55" style="edgeStyle=orthogonalEdgeStyle;shape=connector;curved=0;rounded=0;orthogonalLoop=1;jettySize=auto;html=1;entryX=0;entryY=0.5;entryDx=0;entryDy=0;strokeColor=default;align=center;verticalAlign=middle;fontFamily=Helvetica;fontSize=12;fontColor=default;labelBackgroundColor=default;startSize=8;endArrow=classic;endSize=8;" edge="1" parent="1" source="SLfzTxDuK_mz3WN6_6ux-43" target="SLfzTxDuK_mz3WN6_6ux-51">
          <mxGeometry relative="1" as="geometry" />
        </mxCell>
        <mxCell id="SLfzTxDuK_mz3WN6_6ux-43" value="S1" style="ellipse;whiteSpace=wrap;html=1;aspect=fixed;rounded=0;labelBackgroundColor=none;" vertex="1" parent="1">
          <mxGeometry x="120" y="880" width="40" height="40" as="geometry" />
        </mxCell>
        <mxCell id="SLfzTxDuK_mz3WN6_6ux-90" style="edgeStyle=orthogonalEdgeStyle;shape=connector;curved=0;rounded=0;orthogonalLoop=1;jettySize=auto;html=1;entryX=0;entryY=0.5;entryDx=0;entryDy=0;strokeColor=default;align=center;verticalAlign=middle;fontFamily=Helvetica;fontSize=12;fontColor=default;labelBackgroundColor=default;startSize=8;endArrow=classic;endSize=8;" edge="1" parent="1" source="SLfzTxDuK_mz3WN6_6ux-44" target="SLfzTxDuK_mz3WN6_6ux-88">
          <mxGeometry relative="1" as="geometry">
            <Array as="points">
              <mxPoint x="180" y="900" />
              <mxPoint x="180" y="980" />
            </Array>
          </mxGeometry>
        </mxCell>
        <mxCell id="SLfzTxDuK_mz3WN6_6ux-92" value="&amp;lt;" style="edgeLabel;html=1;align=center;verticalAlign=middle;resizable=0;points=[];fontSize=12;fontFamily=Helvetica;fontColor=default;labelBackgroundColor=default;" vertex="1" connectable="0" parent="SLfzTxDuK_mz3WN6_6ux-90">
          <mxGeometry x="0.5947" y="-1" relative="1" as="geometry">
            <mxPoint y="-16" as="offset" />
          </mxGeometry>
        </mxCell>
        <mxCell id="SLfzTxDuK_mz3WN6_6ux-44" value="S" style="ellipse;whiteSpace=wrap;html=1;aspect=fixed;rounded=0;labelBackgroundColor=none;" vertex="1" parent="1">
          <mxGeometry x="125" y="885" width="30" height="30" as="geometry" />
        </mxCell>
        <mxCell id="SLfzTxDuK_mz3WN6_6ux-45" value="S1" style="ellipse;whiteSpace=wrap;html=1;aspect=fixed;rounded=0;labelBackgroundColor=none;" vertex="1" parent="1">
          <mxGeometry x="120" y="1040" width="40" height="40" as="geometry" />
        </mxCell>
        <mxCell id="SLfzTxDuK_mz3WN6_6ux-56" style="edgeStyle=orthogonalEdgeStyle;shape=connector;curved=0;rounded=0;orthogonalLoop=1;jettySize=auto;html=1;entryX=0;entryY=0.5;entryDx=0;entryDy=0;strokeColor=default;align=center;verticalAlign=middle;fontFamily=Helvetica;fontSize=12;fontColor=default;labelBackgroundColor=default;startSize=8;endArrow=classic;endSize=8;" edge="1" parent="1" source="SLfzTxDuK_mz3WN6_6ux-46" target="SLfzTxDuK_mz3WN6_6ux-53">
          <mxGeometry relative="1" as="geometry" />
        </mxCell>
        <mxCell id="SLfzTxDuK_mz3WN6_6ux-59" value="=" style="edgeLabel;html=1;align=center;verticalAlign=middle;resizable=0;points=[];fontSize=12;fontFamily=Helvetica;fontColor=default;labelBackgroundColor=default;" vertex="1" connectable="0" parent="SLfzTxDuK_mz3WN6_6ux-56">
          <mxGeometry x="0.1094" relative="1" as="geometry">
            <mxPoint x="-2" y="-15" as="offset" />
          </mxGeometry>
        </mxCell>
        <mxCell id="SLfzTxDuK_mz3WN6_6ux-91" style="edgeStyle=orthogonalEdgeStyle;shape=connector;curved=0;rounded=0;orthogonalLoop=1;jettySize=auto;html=1;entryX=0;entryY=0.5;entryDx=0;entryDy=0;strokeColor=default;align=center;verticalAlign=middle;fontFamily=Helvetica;fontSize=12;fontColor=default;labelBackgroundColor=default;startSize=8;endArrow=classic;endSize=8;" edge="1" parent="1" source="SLfzTxDuK_mz3WN6_6ux-46" target="SLfzTxDuK_mz3WN6_6ux-86">
          <mxGeometry relative="1" as="geometry">
            <Array as="points">
              <mxPoint x="180" y="1060" />
              <mxPoint x="180" y="1140" />
            </Array>
          </mxGeometry>
        </mxCell>
        <mxCell id="SLfzTxDuK_mz3WN6_6ux-93" value="&amp;gt;" style="edgeLabel;html=1;align=center;verticalAlign=middle;resizable=0;points=[];fontSize=12;fontFamily=Helvetica;fontColor=default;labelBackgroundColor=default;" vertex="1" connectable="0" parent="SLfzTxDuK_mz3WN6_6ux-91">
          <mxGeometry x="0.658" y="-2" relative="1" as="geometry">
            <mxPoint y="-22" as="offset" />
          </mxGeometry>
        </mxCell>
        <mxCell id="SLfzTxDuK_mz3WN6_6ux-46" value="S" style="ellipse;whiteSpace=wrap;html=1;aspect=fixed;rounded=0;labelBackgroundColor=none;" vertex="1" parent="1">
          <mxGeometry x="125" y="1045" width="30" height="30" as="geometry" />
        </mxCell>
        <mxCell id="SLfzTxDuK_mz3WN6_6ux-51" value="S1" style="ellipse;whiteSpace=wrap;html=1;aspect=fixed;rounded=0;labelBackgroundColor=none;" vertex="1" parent="1">
          <mxGeometry x="240" y="880" width="40" height="40" as="geometry" />
        </mxCell>
        <mxCell id="SLfzTxDuK_mz3WN6_6ux-52" value="S" style="ellipse;whiteSpace=wrap;html=1;aspect=fixed;rounded=0;labelBackgroundColor=none;" vertex="1" parent="1">
          <mxGeometry x="245" y="885" width="30" height="30" as="geometry" />
        </mxCell>
        <mxCell id="SLfzTxDuK_mz3WN6_6ux-53" value="S1" style="ellipse;whiteSpace=wrap;html=1;aspect=fixed;rounded=0;labelBackgroundColor=none;" vertex="1" parent="1">
          <mxGeometry x="240" y="1040" width="40" height="40" as="geometry" />
        </mxCell>
        <mxCell id="SLfzTxDuK_mz3WN6_6ux-54" value="S" style="ellipse;whiteSpace=wrap;html=1;aspect=fixed;rounded=0;labelBackgroundColor=none;" vertex="1" parent="1">
          <mxGeometry x="245" y="1045" width="30" height="30" as="geometry" />
        </mxCell>
        <mxCell id="SLfzTxDuK_mz3WN6_6ux-57" value="=" style="edgeLabel;html=1;align=center;verticalAlign=middle;resizable=0;points=[];fontSize=12;fontFamily=Helvetica;fontColor=default;labelBackgroundColor=default;" vertex="1" connectable="0" parent="1">
          <mxGeometry x="200.00074074074075" y="885" as="geometry" />
        </mxCell>
        <mxCell id="SLfzTxDuK_mz3WN6_6ux-60" value="S1" style="ellipse;whiteSpace=wrap;html=1;aspect=fixed;rounded=0;labelBackgroundColor=none;" vertex="1" parent="1">
          <mxGeometry x="120" y="800" width="40" height="40" as="geometry" />
        </mxCell>
        <mxCell id="SLfzTxDuK_mz3WN6_6ux-62" style="edgeStyle=orthogonalEdgeStyle;shape=connector;curved=0;rounded=0;orthogonalLoop=1;jettySize=auto;html=1;entryX=0;entryY=0.5;entryDx=0;entryDy=0;strokeColor=default;align=center;verticalAlign=middle;fontFamily=Helvetica;fontSize=12;fontColor=default;labelBackgroundColor=default;startSize=8;endArrow=classic;endSize=8;" edge="1" parent="1" source="SLfzTxDuK_mz3WN6_6ux-61" target="SLfzTxDuK_mz3WN6_6ux-39">
          <mxGeometry relative="1" as="geometry" />
        </mxCell>
        <mxCell id="SLfzTxDuK_mz3WN6_6ux-63" value="=" style="edgeLabel;html=1;align=center;verticalAlign=middle;resizable=0;points=[];fontSize=12;fontFamily=Helvetica;fontColor=default;labelBackgroundColor=default;" vertex="1" connectable="0" parent="SLfzTxDuK_mz3WN6_6ux-62">
          <mxGeometry x="0.0222" y="-3" relative="1" as="geometry">
            <mxPoint x="1" y="-18" as="offset" />
          </mxGeometry>
        </mxCell>
        <mxCell id="SLfzTxDuK_mz3WN6_6ux-61" value="S" style="ellipse;whiteSpace=wrap;html=1;aspect=fixed;rounded=0;labelBackgroundColor=none;" vertex="1" parent="1">
          <mxGeometry x="125" y="805" width="30" height="30" as="geometry" />
        </mxCell>
        <mxCell id="SLfzTxDuK_mz3WN6_6ux-66" value="S1" style="ellipse;whiteSpace=wrap;html=1;aspect=fixed;rounded=0;labelBackgroundColor=none;" vertex="1" parent="1">
          <mxGeometry x="120" y="1200" width="40" height="40" as="geometry" />
        </mxCell>
        <mxCell id="SLfzTxDuK_mz3WN6_6ux-74" style="edgeStyle=orthogonalEdgeStyle;shape=connector;curved=0;rounded=0;orthogonalLoop=1;jettySize=auto;html=1;entryX=0;entryY=0.5;entryDx=0;entryDy=0;strokeColor=default;align=center;verticalAlign=middle;fontFamily=Helvetica;fontSize=12;fontColor=default;labelBackgroundColor=default;startSize=8;endArrow=classic;endSize=8;" edge="1" parent="1" source="SLfzTxDuK_mz3WN6_6ux-67" target="SLfzTxDuK_mz3WN6_6ux-70">
          <mxGeometry relative="1" as="geometry" />
        </mxCell>
        <mxCell id="SLfzTxDuK_mz3WN6_6ux-76" value="&amp;amp;" style="edgeLabel;html=1;align=center;verticalAlign=middle;resizable=0;points=[];fontSize=12;fontFamily=Helvetica;fontColor=default;labelBackgroundColor=default;" vertex="1" connectable="0" parent="SLfzTxDuK_mz3WN6_6ux-74">
          <mxGeometry x="0.0571" y="-1" relative="1" as="geometry">
            <mxPoint y="-16" as="offset" />
          </mxGeometry>
        </mxCell>
        <mxCell id="SLfzTxDuK_mz3WN6_6ux-125" value="=" style="edgeStyle=orthogonalEdgeStyle;shape=connector;curved=0;rounded=0;orthogonalLoop=1;jettySize=auto;html=1;entryX=0;entryY=0.5;entryDx=0;entryDy=0;strokeColor=default;align=center;verticalAlign=middle;fontFamily=Helvetica;fontSize=12;fontColor=default;labelBackgroundColor=default;startSize=8;endArrow=classic;endSize=8;" edge="1" parent="1" source="SLfzTxDuK_mz3WN6_6ux-67" target="SLfzTxDuK_mz3WN6_6ux-118">
          <mxGeometry x="0.6365" y="20" relative="1" as="geometry">
            <Array as="points">
              <mxPoint x="180" y="1220" />
              <mxPoint x="180" y="1300" />
            </Array>
            <mxPoint as="offset" />
          </mxGeometry>
        </mxCell>
        <mxCell id="SLfzTxDuK_mz3WN6_6ux-67" value="S" style="ellipse;whiteSpace=wrap;html=1;aspect=fixed;rounded=0;labelBackgroundColor=none;" vertex="1" parent="1">
          <mxGeometry x="125" y="1205" width="30" height="30" as="geometry" />
        </mxCell>
        <mxCell id="SLfzTxDuK_mz3WN6_6ux-75" style="edgeStyle=orthogonalEdgeStyle;shape=connector;curved=0;rounded=0;orthogonalLoop=1;jettySize=auto;html=1;entryX=0;entryY=0.5;entryDx=0;entryDy=0;strokeColor=default;align=center;verticalAlign=middle;fontFamily=Helvetica;fontSize=12;fontColor=default;labelBackgroundColor=default;startSize=8;endArrow=classic;endSize=8;" edge="1" parent="1" source="SLfzTxDuK_mz3WN6_6ux-68" target="SLfzTxDuK_mz3WN6_6ux-72">
          <mxGeometry relative="1" as="geometry" />
        </mxCell>
        <mxCell id="SLfzTxDuK_mz3WN6_6ux-77" value="|" style="edgeLabel;html=1;align=center;verticalAlign=middle;resizable=0;points=[];fontSize=12;fontFamily=Helvetica;fontColor=default;labelBackgroundColor=default;" vertex="1" connectable="0" parent="SLfzTxDuK_mz3WN6_6ux-75">
          <mxGeometry x="0.0352" relative="1" as="geometry">
            <mxPoint x="-1" y="-15" as="offset" />
          </mxGeometry>
        </mxCell>
        <mxCell id="SLfzTxDuK_mz3WN6_6ux-68" value="S1" style="ellipse;whiteSpace=wrap;html=1;aspect=fixed;rounded=0;labelBackgroundColor=none;" vertex="1" parent="1">
          <mxGeometry x="120" y="1360" width="40" height="40" as="geometry" />
        </mxCell>
        <mxCell id="SLfzTxDuK_mz3WN6_6ux-122" style="edgeStyle=orthogonalEdgeStyle;shape=connector;curved=0;rounded=0;orthogonalLoop=1;jettySize=auto;html=1;entryX=0;entryY=0.5;entryDx=0;entryDy=0;strokeColor=default;align=center;verticalAlign=middle;fontFamily=Helvetica;fontSize=12;fontColor=default;labelBackgroundColor=default;startSize=8;endArrow=classic;endSize=8;" edge="1" parent="1" source="SLfzTxDuK_mz3WN6_6ux-69" target="SLfzTxDuK_mz3WN6_6ux-120">
          <mxGeometry relative="1" as="geometry">
            <Array as="points">
              <mxPoint x="180" y="1380" />
              <mxPoint x="180" y="1460" />
            </Array>
          </mxGeometry>
        </mxCell>
        <mxCell id="SLfzTxDuK_mz3WN6_6ux-124" value="=" style="edgeLabel;html=1;align=center;verticalAlign=middle;resizable=0;points=[];fontSize=12;fontFamily=Helvetica;fontColor=default;labelBackgroundColor=default;" vertex="1" connectable="0" parent="SLfzTxDuK_mz3WN6_6ux-122">
          <mxGeometry x="0.6554" y="-3" relative="1" as="geometry">
            <mxPoint y="-18" as="offset" />
          </mxGeometry>
        </mxCell>
        <mxCell id="SLfzTxDuK_mz3WN6_6ux-69" value="S" style="ellipse;whiteSpace=wrap;html=1;aspect=fixed;rounded=0;labelBackgroundColor=none;" vertex="1" parent="1">
          <mxGeometry x="125" y="1365" width="30" height="30" as="geometry" />
        </mxCell>
        <mxCell id="SLfzTxDuK_mz3WN6_6ux-70" value="S1" style="ellipse;whiteSpace=wrap;html=1;aspect=fixed;rounded=0;labelBackgroundColor=none;" vertex="1" parent="1">
          <mxGeometry x="240" y="1200" width="40" height="40" as="geometry" />
        </mxCell>
        <mxCell id="SLfzTxDuK_mz3WN6_6ux-71" value="S" style="ellipse;whiteSpace=wrap;html=1;aspect=fixed;rounded=0;labelBackgroundColor=none;" vertex="1" parent="1">
          <mxGeometry x="245" y="1205" width="30" height="30" as="geometry" />
        </mxCell>
        <mxCell id="SLfzTxDuK_mz3WN6_6ux-72" value="S1" style="ellipse;whiteSpace=wrap;html=1;aspect=fixed;rounded=0;labelBackgroundColor=none;" vertex="1" parent="1">
          <mxGeometry x="240" y="1360" width="40" height="40" as="geometry" />
        </mxCell>
        <mxCell id="SLfzTxDuK_mz3WN6_6ux-73" value="S" style="ellipse;whiteSpace=wrap;html=1;aspect=fixed;rounded=0;labelBackgroundColor=none;" vertex="1" parent="1">
          <mxGeometry x="245" y="1365" width="30" height="30" as="geometry" />
        </mxCell>
        <mxCell id="SLfzTxDuK_mz3WN6_6ux-82" value="S1" style="ellipse;whiteSpace=wrap;html=1;aspect=fixed;rounded=0;labelBackgroundColor=none;" vertex="1" parent="1">
          <mxGeometry x="120" y="1520" width="40" height="40" as="geometry" />
        </mxCell>
        <mxCell id="SLfzTxDuK_mz3WN6_6ux-83" value="S" style="ellipse;whiteSpace=wrap;html=1;aspect=fixed;rounded=0;labelBackgroundColor=none;" vertex="1" parent="1">
          <mxGeometry x="125" y="1525" width="30" height="30" as="geometry" />
        </mxCell>
        <mxCell id="SLfzTxDuK_mz3WN6_6ux-86" value="S1" style="ellipse;whiteSpace=wrap;html=1;aspect=fixed;rounded=0;labelBackgroundColor=none;" vertex="1" parent="1">
          <mxGeometry x="240" y="1120" width="40" height="40" as="geometry" />
        </mxCell>
        <mxCell id="SLfzTxDuK_mz3WN6_6ux-136" style="edgeStyle=orthogonalEdgeStyle;shape=connector;curved=0;rounded=0;orthogonalLoop=1;jettySize=auto;html=1;entryX=0;entryY=0.5;entryDx=0;entryDy=0;strokeColor=default;align=center;verticalAlign=middle;fontFamily=Helvetica;fontSize=12;fontColor=default;labelBackgroundColor=default;startSize=8;endArrow=classic;endSize=8;" edge="1" parent="1" source="SLfzTxDuK_mz3WN6_6ux-87" target="SLfzTxDuK_mz3WN6_6ux-133">
          <mxGeometry relative="1" as="geometry" />
        </mxCell>
        <mxCell id="SLfzTxDuK_mz3WN6_6ux-138" value="=" style="edgeLabel;html=1;align=center;verticalAlign=middle;resizable=0;points=[];fontSize=12;fontFamily=Helvetica;fontColor=default;labelBackgroundColor=default;" vertex="1" connectable="0" parent="SLfzTxDuK_mz3WN6_6ux-136">
          <mxGeometry x="0.0375" y="-2" relative="1" as="geometry">
            <mxPoint x="1" y="-17" as="offset" />
          </mxGeometry>
        </mxCell>
        <mxCell id="SLfzTxDuK_mz3WN6_6ux-87" value="S" style="ellipse;whiteSpace=wrap;html=1;aspect=fixed;rounded=0;labelBackgroundColor=none;" vertex="1" parent="1">
          <mxGeometry x="245" y="1125" width="30" height="30" as="geometry" />
        </mxCell>
        <mxCell id="SLfzTxDuK_mz3WN6_6ux-135" style="edgeStyle=orthogonalEdgeStyle;shape=connector;curved=0;rounded=0;orthogonalLoop=1;jettySize=auto;html=1;entryX=0;entryY=0.5;entryDx=0;entryDy=0;strokeColor=default;align=center;verticalAlign=middle;fontFamily=Helvetica;fontSize=12;fontColor=default;labelBackgroundColor=default;startSize=8;endArrow=classic;endSize=8;" edge="1" parent="1" source="SLfzTxDuK_mz3WN6_6ux-88" target="SLfzTxDuK_mz3WN6_6ux-131">
          <mxGeometry relative="1" as="geometry" />
        </mxCell>
        <mxCell id="SLfzTxDuK_mz3WN6_6ux-137" value="=" style="edgeLabel;html=1;align=center;verticalAlign=middle;resizable=0;points=[];fontSize=12;fontFamily=Helvetica;fontColor=default;labelBackgroundColor=default;" vertex="1" connectable="0" parent="SLfzTxDuK_mz3WN6_6ux-135">
          <mxGeometry x="0.0488" y="-1" relative="1" as="geometry">
            <mxPoint y="-16" as="offset" />
          </mxGeometry>
        </mxCell>
        <mxCell id="SLfzTxDuK_mz3WN6_6ux-88" value="S1" style="ellipse;whiteSpace=wrap;html=1;aspect=fixed;rounded=0;labelBackgroundColor=none;" vertex="1" parent="1">
          <mxGeometry x="240" y="960" width="40" height="40" as="geometry" />
        </mxCell>
        <mxCell id="SLfzTxDuK_mz3WN6_6ux-89" value="S" style="ellipse;whiteSpace=wrap;html=1;aspect=fixed;rounded=0;labelBackgroundColor=none;" vertex="1" parent="1">
          <mxGeometry x="245" y="965" width="30" height="30" as="geometry" />
        </mxCell>
        <mxCell id="SLfzTxDuK_mz3WN6_6ux-94" value="S1" style="ellipse;whiteSpace=wrap;html=1;aspect=fixed;rounded=0;labelBackgroundColor=none;" vertex="1" parent="1">
          <mxGeometry x="240" y="240" width="40" height="40" as="geometry" />
        </mxCell>
        <mxCell id="SLfzTxDuK_mz3WN6_6ux-95" value="S" style="ellipse;whiteSpace=wrap;html=1;aspect=fixed;rounded=0;labelBackgroundColor=none;" vertex="1" parent="1">
          <mxGeometry x="245" y="245" width="30" height="30" as="geometry" />
        </mxCell>
        <mxCell id="SLfzTxDuK_mz3WN6_6ux-96" value="S1" style="ellipse;whiteSpace=wrap;html=1;aspect=fixed;rounded=0;labelBackgroundColor=none;" vertex="1" parent="1">
          <mxGeometry x="240" y="400" width="40" height="40" as="geometry" />
        </mxCell>
        <mxCell id="SLfzTxDuK_mz3WN6_6ux-97" value="S" style="ellipse;whiteSpace=wrap;html=1;aspect=fixed;rounded=0;labelBackgroundColor=none;" vertex="1" parent="1">
          <mxGeometry x="245" y="405" width="30" height="30" as="geometry" />
        </mxCell>
        <mxCell id="SLfzTxDuK_mz3WN6_6ux-98" value="S1" style="ellipse;whiteSpace=wrap;html=1;aspect=fixed;rounded=0;labelBackgroundColor=none;" vertex="1" parent="1">
          <mxGeometry x="240" y="560" width="40" height="40" as="geometry" />
        </mxCell>
        <mxCell id="SLfzTxDuK_mz3WN6_6ux-99" value="S" style="ellipse;whiteSpace=wrap;html=1;aspect=fixed;rounded=0;labelBackgroundColor=none;" vertex="1" parent="1">
          <mxGeometry x="245" y="565" width="30" height="30" as="geometry" />
        </mxCell>
        <mxCell id="SLfzTxDuK_mz3WN6_6ux-100" value="S1" style="ellipse;whiteSpace=wrap;html=1;aspect=fixed;rounded=0;labelBackgroundColor=none;" vertex="1" parent="1">
          <mxGeometry x="240" y="640" width="40" height="40" as="geometry" />
        </mxCell>
        <mxCell id="SLfzTxDuK_mz3WN6_6ux-101" value="S" style="ellipse;whiteSpace=wrap;html=1;aspect=fixed;rounded=0;labelBackgroundColor=none;" vertex="1" parent="1">
          <mxGeometry x="245" y="645" width="30" height="30" as="geometry" />
        </mxCell>
        <mxCell id="SLfzTxDuK_mz3WN6_6ux-102" value="S1" style="ellipse;whiteSpace=wrap;html=1;aspect=fixed;rounded=0;labelBackgroundColor=none;" vertex="1" parent="1">
          <mxGeometry x="240" y="720" width="40" height="40" as="geometry" />
        </mxCell>
        <mxCell id="SLfzTxDuK_mz3WN6_6ux-103" value="S" style="ellipse;whiteSpace=wrap;html=1;aspect=fixed;rounded=0;labelBackgroundColor=none;" vertex="1" parent="1">
          <mxGeometry x="245" y="725" width="30" height="30" as="geometry" />
        </mxCell>
        <mxCell id="SLfzTxDuK_mz3WN6_6ux-114" value="S1" style="ellipse;whiteSpace=wrap;html=1;aspect=fixed;rounded=0;labelBackgroundColor=none;" vertex="1" parent="1">
          <mxGeometry x="120" y="1600" width="40" height="40" as="geometry" />
        </mxCell>
        <mxCell id="SLfzTxDuK_mz3WN6_6ux-128" style="edgeStyle=orthogonalEdgeStyle;shape=connector;curved=0;rounded=0;orthogonalLoop=1;jettySize=auto;html=1;entryX=0;entryY=0.5;entryDx=0;entryDy=0;strokeColor=default;align=center;verticalAlign=middle;fontFamily=Helvetica;fontSize=12;fontColor=default;labelBackgroundColor=default;startSize=8;endArrow=classic;endSize=8;" edge="1" parent="1" source="SLfzTxDuK_mz3WN6_6ux-115" target="SLfzTxDuK_mz3WN6_6ux-126">
          <mxGeometry relative="1" as="geometry" />
        </mxCell>
        <mxCell id="SLfzTxDuK_mz3WN6_6ux-129" value="=" style="edgeLabel;html=1;align=center;verticalAlign=middle;resizable=0;points=[];fontSize=12;fontFamily=Helvetica;fontColor=default;labelBackgroundColor=default;" vertex="1" connectable="0" parent="SLfzTxDuK_mz3WN6_6ux-128">
          <mxGeometry x="0.0701" relative="1" as="geometry">
            <mxPoint y="-15" as="offset" />
          </mxGeometry>
        </mxCell>
        <mxCell id="SLfzTxDuK_mz3WN6_6ux-115" value="S" style="ellipse;whiteSpace=wrap;html=1;aspect=fixed;rounded=0;labelBackgroundColor=none;" vertex="1" parent="1">
          <mxGeometry x="125" y="1605" width="30" height="30" as="geometry" />
        </mxCell>
        <mxCell id="SLfzTxDuK_mz3WN6_6ux-118" value="S1" style="ellipse;whiteSpace=wrap;html=1;aspect=fixed;rounded=0;labelBackgroundColor=none;" vertex="1" parent="1">
          <mxGeometry x="240" y="1280" width="40" height="40" as="geometry" />
        </mxCell>
        <mxCell id="SLfzTxDuK_mz3WN6_6ux-119" value="S" style="ellipse;whiteSpace=wrap;html=1;aspect=fixed;rounded=0;labelBackgroundColor=none;" vertex="1" parent="1">
          <mxGeometry x="245" y="1285" width="30" height="30" as="geometry" />
        </mxCell>
        <mxCell id="SLfzTxDuK_mz3WN6_6ux-120" value="S1" style="ellipse;whiteSpace=wrap;html=1;aspect=fixed;rounded=0;labelBackgroundColor=none;" vertex="1" parent="1">
          <mxGeometry x="235" y="1440" width="40" height="40" as="geometry" />
        </mxCell>
        <mxCell id="SLfzTxDuK_mz3WN6_6ux-121" value="S" style="ellipse;whiteSpace=wrap;html=1;aspect=fixed;rounded=0;labelBackgroundColor=none;" vertex="1" parent="1">
          <mxGeometry x="240" y="1445" width="30" height="30" as="geometry" />
        </mxCell>
        <mxCell id="SLfzTxDuK_mz3WN6_6ux-126" value="S1" style="ellipse;whiteSpace=wrap;html=1;aspect=fixed;rounded=0;labelBackgroundColor=none;" vertex="1" parent="1">
          <mxGeometry x="240" y="1600" width="40" height="40" as="geometry" />
        </mxCell>
        <mxCell id="SLfzTxDuK_mz3WN6_6ux-127" value="S" style="ellipse;whiteSpace=wrap;html=1;aspect=fixed;rounded=0;labelBackgroundColor=none;" vertex="1" parent="1">
          <mxGeometry x="245" y="1605" width="30" height="30" as="geometry" />
        </mxCell>
        <mxCell id="SLfzTxDuK_mz3WN6_6ux-131" value="S1" style="ellipse;whiteSpace=wrap;html=1;aspect=fixed;rounded=0;labelBackgroundColor=none;" vertex="1" parent="1">
          <mxGeometry x="360" y="960" width="40" height="40" as="geometry" />
        </mxCell>
        <mxCell id="SLfzTxDuK_mz3WN6_6ux-132" value="S" style="ellipse;whiteSpace=wrap;html=1;aspect=fixed;rounded=0;labelBackgroundColor=none;" vertex="1" parent="1">
          <mxGeometry x="365" y="965" width="30" height="30" as="geometry" />
        </mxCell>
        <mxCell id="SLfzTxDuK_mz3WN6_6ux-133" value="S1" style="ellipse;whiteSpace=wrap;html=1;aspect=fixed;rounded=0;labelBackgroundColor=none;" vertex="1" parent="1">
          <mxGeometry x="360" y="1120" width="40" height="40" as="geometry" />
        </mxCell>
        <mxCell id="SLfzTxDuK_mz3WN6_6ux-134" value="S" style="ellipse;whiteSpace=wrap;html=1;aspect=fixed;rounded=0;labelBackgroundColor=none;" vertex="1" parent="1">
          <mxGeometry x="365" y="1125" width="30" height="30" as="geometry" />
        </mxCell>
        <mxCell id="SLfzTxDuK_mz3WN6_6ux-139" value="S1" style="ellipse;whiteSpace=wrap;html=1;aspect=fixed;rounded=0;labelBackgroundColor=none;" vertex="1" parent="1">
          <mxGeometry x="240" y="480" width="40" height="40" as="geometry" />
        </mxCell>
        <mxCell id="SLfzTxDuK_mz3WN6_6ux-145" style="edgeStyle=orthogonalEdgeStyle;shape=connector;curved=0;rounded=0;orthogonalLoop=1;jettySize=auto;html=1;entryX=0;entryY=0.5;entryDx=0;entryDy=0;strokeColor=default;align=center;verticalAlign=middle;fontFamily=Helvetica;fontSize=12;fontColor=default;labelBackgroundColor=default;startSize=8;endArrow=classic;endSize=8;" edge="1" parent="1" source="SLfzTxDuK_mz3WN6_6ux-140" target="SLfzTxDuK_mz3WN6_6ux-143">
          <mxGeometry relative="1" as="geometry" />
        </mxCell>
        <mxCell id="SLfzTxDuK_mz3WN6_6ux-146" value="*" style="edgeLabel;html=1;align=center;verticalAlign=middle;resizable=0;points=[];fontSize=12;fontFamily=Helvetica;fontColor=default;labelBackgroundColor=default;" vertex="1" connectable="0" parent="SLfzTxDuK_mz3WN6_6ux-145">
          <mxGeometry x="-0.0521" y="-3" relative="1" as="geometry">
            <mxPoint x="5" y="-18" as="offset" />
          </mxGeometry>
        </mxCell>
        <mxCell id="SLfzTxDuK_mz3WN6_6ux-140" value="S" style="ellipse;whiteSpace=wrap;html=1;aspect=fixed;rounded=0;labelBackgroundColor=none;" vertex="1" parent="1">
          <mxGeometry x="245" y="485" width="30" height="30" as="geometry" />
        </mxCell>
        <mxCell id="SLfzTxDuK_mz3WN6_6ux-143" value="S1" style="ellipse;whiteSpace=wrap;html=1;aspect=fixed;rounded=0;labelBackgroundColor=none;" vertex="1" parent="1">
          <mxGeometry x="360" y="480" width="40" height="40" as="geometry" />
        </mxCell>
        <mxCell id="SLfzTxDuK_mz3WN6_6ux-144" value="S" style="ellipse;whiteSpace=wrap;html=1;aspect=fixed;rounded=0;labelBackgroundColor=none;" vertex="1" parent="1">
          <mxGeometry x="365" y="485" width="30" height="30" as="geometry" />
        </mxCell>
        <mxCell id="SLfzTxDuK_mz3WN6_6ux-158" style="edgeStyle=orthogonalEdgeStyle;shape=connector;curved=0;rounded=0;orthogonalLoop=1;jettySize=auto;html=1;entryX=0;entryY=0.5;entryDx=0;entryDy=0;strokeColor=default;align=center;verticalAlign=middle;fontFamily=Helvetica;fontSize=12;fontColor=default;labelBackgroundColor=default;startSize=8;endArrow=classic;endSize=8;" edge="1" parent="1" source="SLfzTxDuK_mz3WN6_6ux-147" target="SLfzTxDuK_mz3WN6_6ux-156">
          <mxGeometry relative="1" as="geometry" />
        </mxCell>
        <mxCell id="SLfzTxDuK_mz3WN6_6ux-165" value="*" style="edgeLabel;html=1;align=center;verticalAlign=middle;resizable=0;points=[];fontSize=12;fontFamily=Helvetica;fontColor=default;labelBackgroundColor=default;" vertex="1" connectable="0" parent="SLfzTxDuK_mz3WN6_6ux-158">
          <mxGeometry x="0.0112" relative="1" as="geometry">
            <mxPoint x="-1" y="-10" as="offset" />
          </mxGeometry>
        </mxCell>
        <mxCell id="SLfzTxDuK_mz3WN6_6ux-147" value="S1" style="ellipse;whiteSpace=wrap;html=1;aspect=fixed;rounded=0;labelBackgroundColor=none;" vertex="1" parent="1">
          <mxGeometry x="120" y="1680" width="40" height="40" as="geometry" />
        </mxCell>
        <mxCell id="SLfzTxDuK_mz3WN6_6ux-148" value="S" style="ellipse;whiteSpace=wrap;html=1;aspect=fixed;rounded=0;labelBackgroundColor=none;" vertex="1" parent="1">
          <mxGeometry x="125" y="1685" width="30" height="30" as="geometry" />
        </mxCell>
        <mxCell id="SLfzTxDuK_mz3WN6_6ux-149" value="S1" style="ellipse;whiteSpace=wrap;html=1;aspect=fixed;rounded=0;labelBackgroundColor=none;" vertex="1" parent="1">
          <mxGeometry x="120" y="1760" width="40" height="40" as="geometry" />
        </mxCell>
        <mxCell id="SLfzTxDuK_mz3WN6_6ux-150" value="S" style="ellipse;whiteSpace=wrap;html=1;aspect=fixed;rounded=0;labelBackgroundColor=none;" vertex="1" parent="1">
          <mxGeometry x="125" y="1765" width="30" height="30" as="geometry" />
        </mxCell>
        <mxCell id="SLfzTxDuK_mz3WN6_6ux-159" style="edgeStyle=orthogonalEdgeStyle;shape=connector;curved=0;rounded=0;orthogonalLoop=1;jettySize=auto;html=1;entryX=0;entryY=0.5;entryDx=0;entryDy=0;strokeColor=default;align=center;verticalAlign=middle;fontFamily=Helvetica;fontSize=12;fontColor=default;labelBackgroundColor=default;startSize=8;endArrow=classic;endSize=8;" edge="1" parent="1" source="SLfzTxDuK_mz3WN6_6ux-152" target="SLfzTxDuK_mz3WN6_6ux-153">
          <mxGeometry relative="1" as="geometry" />
        </mxCell>
        <mxCell id="SLfzTxDuK_mz3WN6_6ux-167" value=":" style="edgeLabel;html=1;align=center;verticalAlign=middle;resizable=0;points=[];fontSize=12;fontFamily=Helvetica;fontColor=default;labelBackgroundColor=default;" vertex="1" connectable="0" parent="SLfzTxDuK_mz3WN6_6ux-159">
          <mxGeometry x="0.0045" y="-2" relative="1" as="geometry">
            <mxPoint x="2" y="-17" as="offset" />
          </mxGeometry>
        </mxCell>
        <mxCell id="SLfzTxDuK_mz3WN6_6ux-152" value="S" style="ellipse;whiteSpace=wrap;html=1;aspect=fixed;rounded=0;labelBackgroundColor=none;" vertex="1" parent="1">
          <mxGeometry x="125" y="1845" width="30" height="30" as="geometry" />
        </mxCell>
        <mxCell id="SLfzTxDuK_mz3WN6_6ux-153" value="S1" style="ellipse;whiteSpace=wrap;html=1;aspect=fixed;rounded=0;labelBackgroundColor=none;" vertex="1" parent="1">
          <mxGeometry x="240" y="1840" width="40" height="40" as="geometry" />
        </mxCell>
        <mxCell id="SLfzTxDuK_mz3WN6_6ux-154" value="S" style="ellipse;whiteSpace=wrap;html=1;aspect=fixed;rounded=0;labelBackgroundColor=none;" vertex="1" parent="1">
          <mxGeometry x="245" y="1845" width="30" height="30" as="geometry" />
        </mxCell>
        <mxCell id="SLfzTxDuK_mz3WN6_6ux-156" value="S1" style="ellipse;whiteSpace=wrap;html=1;aspect=fixed;rounded=0;labelBackgroundColor=none;" vertex="1" parent="1">
          <mxGeometry x="240" y="1680" width="40" height="40" as="geometry" />
        </mxCell>
        <mxCell id="SLfzTxDuK_mz3WN6_6ux-157" value="S" style="ellipse;whiteSpace=wrap;html=1;aspect=fixed;rounded=0;labelBackgroundColor=none;" vertex="1" parent="1">
          <mxGeometry x="245" y="1685" width="30" height="30" as="geometry" />
        </mxCell>
      </root>
    </mxGraphModel>
  </diagram>
</mxfile>
